<?xml version="1.0" standalone="no"?>
<!DOCTYPE svg PUBLIC "-//W3C//DTD SVG 20010904//EN"
 "http://www.w3.org/TR/2001/REC-SVG-20010904/DTD/svg10.dtd">
<svg version="1.0" xmlns="http://www.w3.org/2000/svg"
 width="512.000000pt" height="512.000000pt" viewBox="0 0 512.000000 512.000000"
 preserveAspectRatio="xMidYMid meet">
<metadata>
Created by potrace 1.11, written by Peter Selinger 2001-2013
</metadata>
<g transform="translate(0.000000,512.000000) scale(0.100000,-0.100000)"
fill="#000000" stroke="none">
<path d="M425 4401 c-89 -22 -178 -101 -211 -187 -18 -47 -19 -99 -19 -1659
l0 -1610 24 -52 c29 -65 101 -134 166 -159 49 -19 105 -19 2180 -19 2075 0
2131 0 2180 19 65 25 137 94 166 159 l24 52 -1 1470 c0 809 -5 1540 -10 1625
-8 133 -13 162 -34 203 -29 58 -86 111 -149 141 l-46 21 -2120 2 c-1166 0
-2133 -2 -2150 -6z m755 -751 l0 -40 80 0 81 0 -3 -127 -3 -128 -117 -3 -116
-3 -7 96 c-4 52 -4 129 0 170 l7 75 39 0 c39 0 39 0 39 -40z m1000 -5 c0 -45
0 -45 -35 -45 -34 0 -35 -1 -35 -38 0 -38 0 -38 35 -34 l35 4 0 -51 0 -51 -40
0 c-22 0 -39 -3 -39 -7 1 -5 1 -23 0 -40 -1 -32 -3 -33 -41 -33 l-40 0 0 130
0 130 40 0 40 0 0 40 0 40 40 0 40 0 0 -45z m-640 -165 l0 -130 -40 0 -40 0 0
130 0 130 40 0 40 0 0 -130z m360 85 l0 -45 -40 0 -40 0 0 -85 0 -85 -40 0
-40 0 0 85 0 85 -40 0 -40 0 0 45 0 45 120 0 120 0 0 -45z m440 -40 l0 -85 41
0 40 0 -3 -42 -3 -43 -80 0 -80 0 -3 128 -3 127 46 0 45 0 0 -85z m280 -45 l0
-130 -39 0 -39 0 -5 78 c-5 62 -4 168 2 180 0 1 19 2 41 2 l40 0 0 -130z m360
0 l0 -130 -80 0 -80 0 0 -46 0 -45 -37 3 -38 3 -3 173 -2 172 120 0 120 0 0
-130z m360 0 l0 -130 -80 0 -80 0 0 -45 c0 -48 -7 -52 -57 -39 -23 6 -23 9
-23 175 l0 169 120 0 120 0 0 -130z m358 83 l-3 -48 -74 -1 -74 -1 -2 -37 -2
-36 79 0 78 0 0 -45 0 -45 -80 0 -80 0 0 40 0 40 -40 0 -40 0 0 90 0 90 121 0
120 0 -3 -47z m282 -4 l0 -51 -37 4 c-28 2 -38 -1 -39 -12 -1 -8 -2 -45 -2
-82 l-2 -68 -40 0 -40 0 0 130 0 130 80 0 80 0 0 -51z m27 -31 c-3 -7 -5 -2
-5 12 0 14 2 19 5 13 2 -7 2 -19 0 -25z m-2867 -662 c61 -40 93 -96 98 -171 5
-82 -11 -128 -62 -179 -108 -108 -290 -79 -364 59 -22 41 -22 159 0 200 23 44
67 85 113 107 58 28 161 20 215 -16z m730 0 c61 -40 93 -96 98 -171 5 -82 -11
-128 -62 -179 -128 -128 -348 -60 -381 117 -19 97 30 198 118 242 70 35 166
32 227 -9z m1588 18 c84 -35 136 -115 136 -209 0 -67 -23 -122 -71 -167 -81
-78 -225 -78 -306 0 -118 111 -84 312 63 376 46 20 131 20 178 0z m730 0 c84
-35 136 -115 136 -209 0 -67 -23 -122 -71 -167 -81 -78 -225 -78 -306 0 -118
111 -84 312 63 376 46 20 131 20 178 0z m-1798 -79 c0 -40 3 -47 26 -55 55
-21 90 -13 124 30 61 77 101 46 156 -123 l32 -102 44 -5 c38 -4 43 -8 43 -30
l0 -25 -237 -3 -238 -2 0 180 0 180 25 0 c23 0 25 -4 25 -45z m-1583 -611 c61
-44 64 -62 64 -390 0 -274 -2 -301 -19 -323 -41 -55 -67 -66 -170 -69 -118 -4
-155 11 -190 79 l-24 44 7 295 c6 273 13 339 34 325 5 -2 15 3 22 13 13 15 12
16 -3 3 -13 -9 -18 -10 -18 -2 0 7 19 21 43 32 60 28 212 24 254 -7z m521 6
c66 -40 72 -63 72 -270 l0 -185 -20 32 c-25 41 -58 63 -106 68 l-39 5 33 -10
c28 -9 32 -15 32 -45 0 -18 5 -37 10 -40 6 -3 10 -29 10 -56 0 -44 -4 -54 -31
-77 -66 -56 -100 -64 -167 -37 l-39 16 -12 99 c-14 104 -12 116 23 130 15 6
16 9 5 9 -24 1 -68 -37 -84 -73 -12 -28 -13 -11 -14 159 -1 173 1 193 19 223
35 57 72 72 180 72 77 0 101 -4 128 -20z m560 -7 c62 -46 63 -53 65 -382 2
-290 1 -300 -19 -328 -44 -59 -78 -73 -178 -73 -113 0 -151 17 -184 81 l-24
44 7 289 c4 159 10 299 15 312 12 31 48 63 85 74 16 5 69 8 118 7 69 -3 93 -7
115 -24z m549 -16 l38 -37 5 -176 c3 -97 3 -177 1 -180 -2 -2 -11 11 -20 28
-20 40 -56 66 -101 73 l-35 6 35 -13 c39 -14 43 -30 42 -156 -1 -53 -4 -66
-24 -82 -38 -33 -92 -45 -135 -31 -67 20 -82 41 -82 107 0 33 1 73 3 89 2 17
4 38 4 47 1 10 16 22 35 28 l32 10 -35 -5 c-45 -7 -81 -33 -102 -76 -17 -33
-17 -31 -18 131 0 187 8 216 70 258 32 22 43 23 142 20 l108 -3 37 -38z m530
23 c66 -40 68 -51 68 -385 0 -278 -1 -302 -19 -332 -33 -53 -81 -73 -181 -73
-100 0 -148 20 -181 73 -18 30 -19 54 -19 332 0 270 2 303 18 333 31 57 68 72
182 72 82 0 106 -4 132 -20z m519 4 c18 -9 43 -31 54 -49 20 -32 21 -46 18
-349 l-3 -315 -30 -31 c-39 -41 -85 -53 -186 -49 -67 3 -90 8 -115 26 -61 44
-64 60 -64 380 0 322 3 336 69 380 29 20 47 23 128 23 67 0 105 -5 129 -16z
m561 -9 c57 -34 61 -51 68 -370 l7 -290 -24 -44 c-33 -64 -71 -81 -184 -81
-100 0 -134 14 -178 73 -20 28 -21 38 -19 319 1 173 7 304 13 323 13 39 47 73
86 85 50 16 195 7 231 -15z m519 9 c63 -30 72 -58 76 -247 2 -92 1 -167 -2
-167 -3 0 -12 15 -20 32 -24 50 -70 68 -175 68 -110 0 -151 -17 -180 -75 l-20
-40 -3 158 c-3 182 10 230 70 267 43 26 201 29 254 4z m-40 -381 l47 -58 -6
-76 c-4 -61 -10 -82 -28 -104 -50 -57 -127 -72 -186 -36 -30 19 -31 23 -38
104 -15 173 12 227 111 227 52 0 54 -1 100 -57z"/>
<path d="M1180 3480 c0 -39 1 -40 35 -40 34 0 35 1 35 40 0 39 -1 40 -35 40
-34 0 -35 -1 -35 -40z m45 10 c-3 -5 -10 -10 -16 -10 -5 0 -9 5 -9 10 0 6 7
10 16 10 8 0 12 -4 9 -10z"/>
<path d="M2828 3478 c-3 -37 -3 -38 32 -38 35 0 35 1 32 38 -3 33 -7 37 -32
37 -25 0 -29 -4 -32 -37z"/>
<path d="M3189 3515 c0 0 -1 -17 -2 -38 -2 -36 -1 -37 33 -37 35 0 35 1 32 38
-3 33 -6 37 -33 37 -16 0 -29 0 -30 0z"/>
<path d="M940 2808 c-55 -38 -75 -73 -75 -133 0 -60 19 -95 76 -133 28 -19 44
-23 85 -20 89 7 146 67 146 154 0 120 -136 197 -232 132z"/>
<path d="M1670 2808 c-55 -38 -75 -73 -75 -133 0 -60 19 -95 76 -133 66 -45
177 -14 215 60 20 39 20 107 0 147 -40 76 -148 105 -216 59z"/>
<path d="M3294 2811 c-81 -50 -105 -154 -51 -225 35 -45 75 -66 127 -66 52 0
92 21 127 66 35 47 39 128 7 171 -53 71 -144 94 -210 54z"/>
<path d="M4024 2811 c-81 -50 -105 -154 -51 -225 35 -45 75 -66 127 -66 52 0
92 21 127 66 22 29 27 47 27 89 0 89 -67 155 -156 155 -25 0 -56 -8 -74 -19z"/>
<path d="M2563 2720 c-31 -34 -34 -35 -102 -34 l-71 1 0 -69 0 -68 140 0 c77
0 140 2 140 4 0 13 -52 164 -63 181 -12 20 -13 20 -44 -15z"/>
<path d="M598 2153 c6 -2 18 -2 25 0 6 3 1 5 -13 5 -14 0 -19 -2 -12 -5z"/>
<path d="M559 2133 c-13 -16 -12 -17 4 -4 9 7 17 15 17 17 0 8 -8 3 -21 -13z"/>
<path d="M1611 2171 c-42 -40 -39 -46 12 -19 57 30 192 32 255 4 23 -10 42
-24 42 -29 0 -6 3 -8 6 -5 10 10 -25 54 -52 66 -14 7 -72 12 -128 12 -101 0
-105 -1 -135 -29z"/>
<path d="M1642 2137 c-30 -32 -28 -42 3 -12 22 23 32 25 108 25 85 0 105 -7
125 -45 9 -15 11 -16 12 -4 0 8 -10 25 -23 37 -20 19 -35 22 -113 22 -82 0
-93 -2 -112 -23z"/>
<path d="M3845 2204 c-47 -12 -75 -28 -90 -51 -22 -33 -11 -42 28 -19 31 17
31 17 14 -1 -9 -11 -17 -25 -17 -32 0 -7 12 1 26 18 25 30 28 31 109 31 103 0
125 -14 136 -86 l8 -49 -2 48 c-1 26 0 47 2 47 2 0 13 -7 23 -17 17 -15 18
-15 18 3 0 27 -35 80 -61 94 -23 13 -160 22 -194 14z"/>
</g>
</svg>
