<?xml version="1.0" encoding="utf-8"?>
<!-- Generator: Adobe Illustrator 22.0.1, SVG Export Plug-In . SVG Version: 6.00 Build 0)  -->
<svg version="1.1" id="Ebene_1" xmlns="http://www.w3.org/2000/svg" xmlns:xlink="http://www.w3.org/1999/xlink" x="0px" y="0px"
	 viewBox="0 0 566.9 113.4" style="enable-background:new 0 0 566.9 113.4;" xml:space="preserve">
<style type="text/css">
	.st0{fill:#FFFFFF;}
</style>
<g>
	<polygon class="st0" points="30.4,26.3 9.2,26.3 9.2,47.5 9.2,90.1 51.7,90.1 51.7,47.5 30.4,47.5 	"/>
	<rect x="73" y="47.5" class="st0" width="21.3" height="42.5"/>
	<polygon class="st0" points="104.8,47.5 126.1,47.5 126.1,90.1 147.4,90.1 147.4,47.5 157.5,47.5 157.5,36.9 104.8,36.9 	"/>
	<polygon class="st0" points="168.6,90.1 189.9,90.1 189.9,67 211.2,67 211.2,56.4 189.9,56.4 189.9,36.9 168.6,36.9 	"/>
	<rect x="189.9" y="26.3" class="st0" width="21.3" height="10.6"/>
	<rect x="59.8" y="26.3" class="st0" width="26.3" height="10.6"/>
	<polygon class="st0" points="244,35.1 222.8,35.1 222.8,88.3 244,88.3 265.3,88.3 265.3,77.7 244,77.7 	"/>
	<rect x="278.5" y="45.8" class="st0" width="21.3" height="42.5"/>
	<rect x="265.3" y="24.5" class="st0" width="26.3" height="10.6"/>
	<polygon class="st0" points="337.6,44.9 320.3,44.9 320.3,88.3 341.6,88.3 341.6,65.3 362.8,65.3 362.8,24.5 337.6,24.5 	"/>
	<polygon class="st0" points="397.3,45.8 380,45.8 380,88.3 401.3,88.3 401.3,65.3 422.5,65.3 422.5,24.5 397.3,24.5 	"/>
	<polygon class="st0" points="442.5,88.3 463.8,88.3 485,88.3 485,77.7 463.8,77.7 463.8,65.3 485,65.3 485,54.6 463.8,54.6 
		463.8,35.1 442.5,35.1 	"/>
	<rect x="463.8" y="24.5" class="st0" width="21.3" height="10.6"/>
	<polygon class="st0" points="538.9,65.3 538.9,24.5 513.6,24.5 513.6,44.9 496.3,44.9 496.3,88.3 517.6,88.3 517.6,65.3 535,65.3 
		535,86.5 556.3,86.5 556.3,65.3 	"/>
</g>
</svg>
